<svg xmlns="http://www.w3.org/2000/svg" width="290" height="182" viewBox="0 0 290 182">
    <g fill="none" fill-rule="evenodd">
        <circle cx="145" cy="91" r="91" fill="#006BAC"/>
        <path fill="#E3FDFF" fill-rule="nonzero" d="M174.553 122.643a10.564 10.564 0 0 1-.254 4.464 12.073 12.073 0 0 1-1.954 3.94 11.85 11.85 0 0 1-3.288 3.002 11.406 11.406 0 0 1-8.8 1.287 11.771 11.771 0 0 1-4.004-1.938 12.073 12.073 0 0 1-3.002-3.177 10.596 10.596 0 0 1-1.588-4.21c-.922-6.303 3.442-12.16 9.745-13.081 6.304-.922 12.16 3.442 13.082 9.745l.063-.032zm22.192 8.277c-7.52 1.059-11.835-2.198-12.947-9.77l-8.689-59.427a10.548 10.548 0 0 1 2.097-8.88 12.39 12.39 0 0 1 15.885-2.303 10.548 10.548 0 0 1 4.591 7.943l7.006 48.005 23.113-3.368a9.801 9.801 0 0 1 8.467 2.208 13.28 13.28 0 0 1 2.35 16.092 9.801 9.801 0 0 1-7.481 4.543l-34.392 4.957zm70.372-86.845a10.5 10.5 0 0 1 5.13-7.625 12.216 12.216 0 0 1 8.626-1.112c2.837.65 5.36 2.267 7.133 4.575a10.484 10.484 0 0 1 1.588 9.039l-15.805 63c-1.462 5.37-4.575 8.399-9.341 9.087-4.766.688-9.002-1.27-12.708-5.878L218.635 59.31a10.484 10.484 0 0 1-1.049-9.118 12.55 12.55 0 0 1 5.529-6.354c2.59-1.502 5.644-2 8.578-1.398a10.516 10.516 0 0 1 7.1 5.845l19.428 34.17 8.896-38.38zM39.989 130.507l21.255-3.098a10.818 10.818 0 0 1 8.88 2.145 12.343 12.343 0 0 1 2.24 16.012 10.818 10.818 0 0 1-7.943 4.59l-41.81 6.1c-6.513.954-10.85-.847-13.01-5.4-2.16-4.554-1.361-9.182 2.398-13.884l25.258-43.446-24.066 3.51a10.802 10.802 0 0 1-8.88-2.144A12.343 12.343 0 0 1 1.96 78.848a10.818 10.818 0 0 1 7.942-4.591l44.654-6.529c4.585-.667 8.054.651 10.405 3.955 2.35 3.305 2.62 7.387.81 12.248l-25.782 46.576zm63.208 2.35a10.548 10.548 0 0 1-2.145 8.88 11.882 11.882 0 0 1-7.482 4.051c-2.94.52-5.967-.07-8.499-1.652a10.548 10.548 0 0 1-4.59-7.942L71.823 76.83a10.548 10.548 0 0 1 2.129-8.88 12.089 12.089 0 0 1 7.625-4.066 11.898 11.898 0 0 1 8.26 1.731 10.548 10.548 0 0 1 4.59 7.943l8.77 59.3zm28.1-4.32c1.144 7.794-2.09 12.247-9.705 13.36-7.615 1.111-11.898-2.246-12.851-10.072l-3.94-27.005c-1.536-9.235 2.05-14.487 10.754-15.758l28.594-4.178c3.029-.445 4.374-1.81 4.035-4.098-.34-2.288-2.018-3.214-5.036-2.78l-30.531 4.464c-7.149 1.059-11.385-2.209-12.709-9.802-1.323-7.593 1.764-11.887 9.261-12.883l29.436-4.305c17.05-2.488 26.857 5.02 29.42 22.526 2.562 17.505-4.64 27.502-21.605 29.991l-17.743 2.59 2.62 17.95z"/>
    </g>
</svg>
