<svg xmlns="http://www.w3.org/2000/svg" width="1280" height="732" viewBox="0 0 1280 732">
    <path fill="#006AB9" fill-rule="nonzero" d="M937.383 521.069A68.47 68.47 0 0 1 935.735 550a78.251 78.251 0 0 1-12.664 25.535 76.81 76.81 0 0 1-21.313 19.46 73.927 73.927 0 0 1-57.04 8.34 76.295 76.295 0 0 1-25.947-12.562 78.251 78.251 0 0 1-19.46-20.592 68.676 68.676 0 0 1-10.296-27.285c-5.971-40.857 22.31-78.819 63.167-84.79 40.857-5.97 78.818 22.31 84.789 63.168l.412-.206zm143.838 53.643c-48.736 6.864-76.707-14.243-83.914-63.322l-56.32-385.18a68.367 68.367 0 0 1 13.59-57.556c26.023-29.539 69.621-35.86 102.962-14.93a68.367 68.367 0 0 1 29.756 51.482l45.406 311.15 149.81-21.827a63.527 63.527 0 0 1 54.879 14.311c28.262 27.228 34.529 70.125 15.238 104.3a63.527 63.527 0 0 1-48.495 29.448l-222.912 32.124zm456.12-562.893a68.058 68.058 0 0 1 33.257-49.421 79.178 79.178 0 0 1 55.909-7.208 81.134 81.134 0 0 1 46.23 29.653 67.955 67.955 0 0 1 10.296 58.586l-102.447 408.346c-9.473 34.802-29.653 54.433-60.542 58.895-30.889 4.461-58.345-8.237-82.37-38.096L1223.103 110.56a67.955 67.955 0 0 1-6.795-59.1 81.34 81.34 0 0 1 35.83-41.185 79.178 79.178 0 0 1 55.6-9.06 68.16 68.16 0 0 1 46.024 37.89l125.922 221.47 57.659-248.756zM65.194 572.035l137.763-20.078a70.117 70.117 0 0 1 57.555 13.9c29.978 26.17 36.164 70.395 14.518 103.786a70.117 70.117 0 0 1-51.48 29.756l-270.997 39.537c-42.214 6.178-70.323-5.491-84.325-35.007-14.003-29.516-8.82-59.512 15.547-89.989l163.71-281.6-155.988 22.754a70.014 70.014 0 0 1-57.556-13.9c-30.33-25.997-36.834-70.384-15.238-103.991a70.117 70.117 0 0 1 51.48-29.756L159.61 165.13c29.721-4.325 52.201 4.221 67.44 25.637 15.238 21.416 16.989 47.877 5.25 79.384L65.194 572.035zm409.685 15.238a68.367 68.367 0 0 1-13.9 57.556 77.015 77.015 0 0 1-48.495 26.255 78.251 78.251 0 0 1-55.084-10.708 68.367 68.367 0 0 1-29.756-51.48l-56.115-384.77a68.367 68.367 0 0 1 13.797-57.555 78.354 78.354 0 0 1 49.422-26.358 77.118 77.118 0 0 1 53.54 11.223 68.367 68.367 0 0 1 29.756 51.48l56.835 384.357zm182.14-28.005c7.413 50.52-13.557 79.383-62.91 86.59-49.353 7.208-77.119-14.551-83.296-65.277l-25.535-175.035c-9.953-59.856 13.282-93.902 69.705-102.139l185.332-27.079c19.631-2.883 28.349-11.737 26.152-26.564-2.196-14.826-13.076-20.832-32.639-18.018l-197.893 28.932c-46.332 6.864-73.789-14.312-82.37-63.527-8.58-49.216 11.43-77.05 60.028-83.502L704.38 85.746c110.512-16.13 174.074 32.536 190.685 146 16.612 113.464-30.064 178.261-140.028 194.392L640.03 442.92l16.989 116.347z"/>
</svg>
