<svg xmlns="http://www.w3.org/2000/svg" width="1280" height="442" viewBox="0 0 1280 442">
    <path fill="#1588D9" fill-rule="nonzero" d="M1009.45 219.144a69.684 69.684 0 0 1-1.677 29.446 79.639 79.639 0 0 1-12.89 25.987 78.172 78.172 0 0 1-21.69 19.805 75.238 75.238 0 0 1-58.053 8.488 77.648 77.648 0 0 1-26.406-12.784 79.639 79.639 0 0 1-19.805-20.958 69.894 69.894 0 0 1-10.48-27.769c-6.076-41.581 22.707-80.216 64.288-86.293 41.582-6.076 80.217 22.706 86.293 64.288l.42-.21zm146.388 54.595c-49.6 6.986-78.067-14.496-85.402-64.445l-57.319-392.012a69.58 69.58 0 0 1 13.832-58.576c26.485-30.063 70.856-36.497 104.788-15.195a69.58 69.58 0 0 1 30.284 52.394l46.211 316.67L1360.7 90.36a64.654 64.654 0 0 1 55.852 14.565c28.763 27.711 35.142 71.369 15.509 106.15a64.654 64.654 0 0 1-49.355 29.97l-226.867 32.694zm464.211-572.876a69.265 69.265 0 0 1 33.847-50.299 80.582 80.582 0 0 1 56.9-7.335 82.573 82.573 0 0 1 47.05 30.18 69.16 69.16 0 0 1 10.479 59.624L1664.06 148.622c-9.64 35.418-30.179 55.398-61.615 59.939-31.436 4.54-59.38-8.383-83.83-38.772l-218.379-368.435a69.16 69.16 0 0 1-6.916-60.148 82.783 82.783 0 0 1 36.467-41.915 80.582 80.582 0 0 1 56.585-9.222 69.37 69.37 0 0 1 46.84 38.562l128.156 225.4 58.681-253.168zM121.79 271.014l140.207-20.433a71.36 71.36 0 0 1 58.577 14.146c30.51 26.634 36.805 71.643 14.775 105.626a71.36 71.36 0 0 1-52.394 30.284L7.152 440.876c-42.963 6.287-71.57-5.589-85.822-35.628-14.25-30.04-8.976-60.568 15.823-91.585L103.766 27.068-54.988 50.226a71.256 71.256 0 0 1-58.576-14.146c-30.868-26.46-37.488-71.634-15.509-105.836a71.36 71.36 0 0 1 52.394-30.284l294.56-43.068c30.248-4.401 53.127 4.296 68.636 26.092 15.508 21.796 17.29 48.727 5.344 80.792L121.79 271.014zm416.953 15.509a69.58 69.58 0 0 1-14.147 58.577 78.381 78.381 0 0 1-49.355 26.72 79.639 79.639 0 0 1-56.062-10.897 69.58 69.58 0 0 1-30.283-52.395l-57.11-391.592a69.58 69.58 0 0 1 14.042-58.577 79.744 79.744 0 0 1 50.298-26.826 78.486 78.486 0 0 1 54.49 11.422 69.58 69.58 0 0 1 30.284 52.394l57.843 391.174zm185.37-28.502c7.544 51.416-13.797 80.791-64.026 88.126-50.228 7.336-78.486-14.81-84.773-66.435l-25.988-178.14c-10.13-60.917 13.518-95.567 70.942-103.95l188.618-27.559c19.98-2.934 28.852-11.946 26.616-27.035-2.235-15.09-13.308-21.202-33.217-18.338L600.88-45.865c-47.155 6.986-75.098-14.565-83.83-64.654-8.733-50.089 11.63-78.416 61.09-84.983L772.315-223.9c112.473-16.416 177.162 33.113 194.068 148.59 16.905 115.476-30.599 181.423-142.512 197.84l-117.048 17.08 17.29 118.41z"/>
</svg>
