<svg xmlns="http://www.w3.org/2000/svg" width="471" height="403" viewBox="0 0 471 403">
    <g fill="none" fill-rule="evenodd">
        <path fill="#F78F4A" d="M236.852 40.704C261.655 15.574 296.117 0 334.217 0 409.76 0 471 61.228 471 136.757c0 66.745-47.825 122.323-111.083 134.346C365.172 253.997 368 235.83 368 217c0-4.597-.169-9.155-.5-13.667 23.516-12.59 39.5-37.305 39.5-65.734C407 96.399 373.428 63 332.016 63c-12.697 0-24.657 3.14-35.138 8.68-17.708-13.774-38-24.383-60.026-30.976z"/>
        <path fill="#D3D6DB" d="M350.136 296.187L378 403l-102.009-26.61C248.93 392.041 217.511 401 184 401 82.38 401 0 318.62 0 217S82.38 33 184 33s184 82.38 184 184c0 28.35-6.412 55.203-17.864 79.187zM285 312l-14.062-53.906C276.747 245.954 280 232.357 280 218c0-51.362-41.638-93-93-93s-93 41.638-93 93 41.638 93 93 93c16.936 0 32.815-4.527 46.492-12.437L285 312z"/>
    </g>
</svg>
