<svg xmlns="http://www.w3.org/2000/svg" width="815" height="886" viewBox="0 0 815 886">
    <g fill="none" fill-rule="evenodd">
        <path fill="#86A924" d="M300 89.484C354.551 34.24 430.35 0 514.15 0 680.305 0 815 134.605 815 300.65 815 447.383 709.81 569.566 570.677 596c11.557-37.607 17.778-77.548 17.778-118.942 0-10.106-.371-20.126-1.1-30.047 51.722-27.678 86.88-82.012 86.88-144.51 0-90.575-73.84-164-164.926-164-27.927 0-54.232 6.902-77.285 19.084C393.077 127.303 348.446 103.98 300 89.484z"/>
        <path fill="#94BC23" d="M548.743 651.012L610 886l-224.257-58.544C326.25 861.892 257.179 881.6 183.508 881.6-39.896 881.6-221 700.365-221 476.8S-39.896 72 183.508 72c223.404 0 404.508 181.235 404.508 404.8 0 62.37-14.096 121.447-39.273 174.212zM405.548 685.8l-30.916-118.594c12.772-26.708 19.924-56.621 19.924-88.206 0-112.997-91.537-204.6-204.453-204.6S-14.349 366.003-14.349 479s91.536 204.6 204.452 204.6c37.232 0 72.14-9.96 102.208-27.361L405.548 685.8z"/>
    </g>
</svg>
