<svg xmlns="http://www.w3.org/2000/svg" width="1036" height="886" viewBox="0 0 1036 886">
    <g fill="none" fill-rule="evenodd" opacity=".245">
        <path fill="#F78F4A" d="M521 89.484C575.551 34.24 651.35 0 735.15 0 901.305 0 1036 134.605 1036 300.65c0 146.734-105.19 268.917-244.323 295.35 11.557-37.607 17.778-77.548 17.778-118.942 0-10.106-.371-20.126-1.1-30.047 51.722-27.678 86.88-82.012 86.88-144.51 0-90.575-73.84-164-164.926-164-27.927 0-54.232 6.902-77.285 19.084C614.077 127.303 569.446 103.98 521 89.484z"/>
        <path fill="#D3D6DB" d="M769.743 651.012L831 886l-224.257-58.544C547.25 861.892 478.179 881.6 404.508 881.6 181.104 881.6 0 700.365 0 476.8S181.104 72 404.508 72c223.404 0 404.508 181.235 404.508 404.8 0 62.37-14.096 121.447-39.273 174.212zM626.548 685.8l-30.916-118.594c12.772-26.708 19.924-56.621 19.924-88.206 0-112.997-91.537-204.6-204.453-204.6S206.651 366.003 206.651 479s91.536 204.6 204.452 204.6c37.232 0 72.14-9.96 102.208-27.361L626.548 685.8z"/>
    </g>
</svg>
