<svg xmlns="http://www.w3.org/2000/svg" width="227" height="183" viewBox="0 0 227 183">
    <path fill="#FF8432" fill-rule="nonzero" d="M76.735 120.848c.46 3.275 1.31 5.305 2.62 6.549 1.375 1.309 3.208 1.764 5.63 2.027 2.881-.263 4.845-.915 6.153-2.813.788-1.244 1.31-3.143 1.572-5.763.199-2.29.525-6.285.918-10.931v-.13l-.197-1.64-.196-1.635-.261-1.637-.198-1.571-.197-1.636-.26-1.571-.196-1.57-.262-1.574-.264-1.502-.195-1.443-.264-1.442v-.194l-.194-1.179-.261-1.309-.264-1.243-.196-1.179-.262-1.112-.26-.982-.327-1.573-.462-1.636-.391-1.702-.458-1.768-.458-1.833-.46-1.896-.393-1.964-.457-1.965-.391-2.032-.33-2.027-.261-2.03-.262-2.03-.196-2.029-.066-2.095v-2.031l.066-1.963.196-2.029.328-1.965.458-1.963.59-1.9.852-1.83.98-1.769.522-.72c-1.897-.457-4.125-.718-6.611-.718-.983 0-1.9 0-2.816.13-22 1.9-13.03 26.774-9.296 40.457 2.619 9.492 5.63 31.62 6.677 38.361m2.62-81.83c.85.196 1.701.326 2.682.326 4.52 0 7.467-2.42 9.101-6.153 1.05-2.551 1.507-5.693 1.441-9.035-.13-2.815-.588-5.432-1.44-7.725-1.765-4.45-5.106-7.462-10.083-7.462-.59 0-1.18 0-1.702.132-6.352.915-9.101 7.33-8.838 15.055.195 7.268 3.079 13.421 8.838 14.862m11.784 36.266c.788 3.34 1.572 6.416 2.227 9.166 2.688 10.934 5.307 36.334 6.288 43.992.915 7.725 3.665 9.362 9.167 9.885 5.431-.523 8.183-2.16 9.1-9.885.917-7.658 3.6-33.058 6.22-43.992.653-2.75 1.506-5.826 2.29-9.166 2.424-10.015 4.388-21.798 0-29.393-2.816-4.844-8.185-8.054-17.61-8.054-9.496 0-14.93 3.21-17.682 8.054-4.386 7.595-2.42 19.378 0 29.393m17.55-40.392h.132c8.51-.063 12.5-7.855 12.5-17.414 0-9.556-3.99-17.413-12.5-17.478h-.132c-8.643 0-12.635 7.856-12.635 17.478 0 9.624 3.992 17.414 12.635 17.414m26.714 7.008c-2.555 0-4.716.26-6.614.717l.524.721.983 1.769.786 1.83.652 1.9.458 1.963.33 1.965.194 2.03.067 1.962v2.096l-.135 2.03-.126 2.03-.265 2.03-.261 2.029-.391 2.027-.392 2.032-.394 1.965-.46 1.964-.391 1.896-.458 1.833-.458 1.768-.46 1.702-.391 1.636-.395 1.573-.196.982-.262 1.112-.261 1.179-.199 1.243-.259 1.309-.198 1.114v.26l-.26 1.441-.263 1.443-.198 1.502-.26 1.574-.198 1.57-.26 1.571-.198 1.636-.261 1.571-.197 1.637-.194 1.634-.197 1.641v.065c.391 4.711.719 8.705.915 10.996.196 2.62.722 4.52 1.57 5.763 1.245 1.898 3.273 2.55 6.153 2.813 2.425-.263 4.26-.718 5.634-2.027 1.31-1.244 2.096-3.274 2.62-6.549 1.045-6.74 4.059-28.87 6.678-38.361 3.732-13.683 12.704-38.558-9.298-40.458-.916-.13-1.83-.13-2.814-.13m.131-2.555c.98 0 1.832-.13 2.683-.326 5.763-1.44 8.577-7.594 8.838-14.862.262-7.725-2.485-14.14-8.838-15.055-.525-.132-1.113-.132-1.703-.132-5.041 0-8.313 3.012-10.083 7.462-.85 2.293-1.375 4.91-1.439 7.725-.132 3.342.325 6.484 1.439 9.035 1.639 3.732 4.584 6.153 9.103 6.153m26.386 11.262c40.66.522 64.36 25.465 37.448 59.572-12.37 15.712-33.258 31.225-61.151 41.243-1.31.458-2.683.92-3.993 1.374-2.62.85-5.237 1.637-7.793 2.422-6.023 1.702-11.914 3.208-17.61 4.323a206.263 206.263 0 0 1-17.682 2.815c-4.057.39-7.985.656-11.784.72-25.928.653-45.438-6.416-51.79-21.605-7.659-18.132 7.858-43.402 38.89-62.65C43.476 88.119 1.766 109.853 0 141.015v3.926c.196 3.143.788 6.348 1.833 9.69 6.612 21.013 37.842 30.832 77.521 27.3 3.863-.332 7.792-.786 11.784-1.378 5.762-.85 11.655-2.029 17.682-3.402 5.76-1.378 11.652-3.014 17.61-4.845 1.309-.462 2.62-.851 3.928-1.313 2.686-.85 5.305-1.766 7.858-2.747 34.438-12.5 59.976-29.133 74.902-48.247 8.512-10.932 12.902-21.145 13.75-30.114v-6.872c-2.356-22.717-28.873-36.074-64.949-32.406"/>
</svg>
