<svg xmlns="http://www.w3.org/2000/svg" width="212" height="251" viewBox="0 0 212 251">
    <path fill="#C4EB56" fill-rule="evenodd" d="M15.5 82c8.558 0 15.497 6.857 15.5 15.318v64.364C30.997 170.142 24.058 177 15.5 177S.003 170.142 0 161.682V97.318C.003 88.858 6.942 82 15.5 82zM212 97.318v64.364c-.003 8.46-6.942 15.318-15.5 15.318-8.559 0-15.497-6.858-15.5-15.318V97.318c.003-8.46 6.941-15.318 15.5-15.318 8.558 0 15.497 6.857 15.5 15.318zM36.763 84H175v101.097c0 8.435-6.911 15.337-15.359 15.337h-12.944v35.235c-.003 8.467-6.879 15.331-15.359 15.331s-15.356-6.864-15.36-15.33V200.433H95.022v35.235C95.018 244.136 88.143 251 79.662 251c-8.48 0-15.356-6.864-15.359-15.33V200.433H51.36c-8.447 0-15.359-6.902-15.359-15.337V84h.763zM175 79H36.045c-.027-.7-.045-1.401-.045-2.106 0-4.71.595-9.295 1.715-13.703 4.32-16.988 16.498-31.324 32.958-39.836L59.994 3.687A2.494 2.494 0 0 1 61.001.302a2.502 2.502 0 0 1 3.39 1.005l10.804 19.9c9.194-3.978 19.52-6.21 30.433-6.21 10.831 0 21.083 2.201 30.224 6.124L146.61 1.307A2.501 2.501 0 0 1 150 .302a2.494 2.494 0 0 1 1.006 3.385L140.383 23.25c17.268 8.861 29.857 24.121 33.667 42.136.43 2.036.749 4.107.95 6.208V79zM73.827 41.363c-3.611 0-6.54 2.923-6.54 6.529 0 3.605 2.929 6.528 6.54 6.528 3.612 0 6.54-2.923 6.54-6.528 0-3.606-2.928-6.53-6.54-6.53zm63.346 0c-3.612 0-6.54 2.923-6.54 6.529 0 3.605 2.928 6.528 6.54 6.528 3.611 0 6.54-2.923 6.54-6.528 0-3.606-2.929-6.53-6.54-6.53z"/>
</svg>
