<svg xmlns="http://www.w3.org/2000/svg" width="505" height="457" viewBox="0 0 505 457">
    <g fill="none" fill-rule="evenodd" transform="matrix(-1 0 0 1 679 -1)">
        <path fill="#CCD0D7" d="M576.598 176.426l-32-55.426.866-.5 32 55.426zM479.671 118.841h64v1h-64z"/>
        <circle cx="544.171" cy="119.341" r="3.5" fill="#BDC2EC"/>
        <path fill="#CCD0D7" d="M407 193h64v1h-64z"/>
        <g transform="translate(318 380)">
            <path fill="#CCD0D7" d="M1.464.964l32 55.426-.866.5-32-55.426z"/>
            <circle cx="33.5" cy="57.5" r="3.5" fill="#BDC2EC"/>
        </g>
        <circle cx="471.5" cy="193.5" r="3.5" fill="#BDC2EC"/>
        <path fill="#CCD0D7" d="M254 380h64v1h-64z"/>
        <circle cx="318.5" cy="380.5" r="5.5" fill="#BDC2EC"/>
        <path fill="#CCD0D7" d="M278 61h64v1h-64z"/>
        <circle cx="342.5" cy="61.5" r="3.5" fill="#BDC2EC"/>
        <path fill="#CCD0D7" d="M180 4h64v1h-64zM204 136h64v1h-64z"/>
        <circle cx="220.781" cy="323.781" r="3.5" fill="#BDC2EC" transform="rotate(60 220.781 323.781)"/>
        <path fill="#CCD0D7" d="M674.598 233.426l-32-55.426.866-.5 32 55.426z"/>
        <circle cx="675.281" cy="233.609" r="3.5" fill="#BDC2EC" transform="rotate(-120 675.281 233.609)"/>
        <path fill="#CCD0D7" d="M401 249h104v1H401zM391 306h104v1H391z"/>
        <circle cx="390.5" cy="306.5" r="3.5" fill="#BDC2EC"/>
        <path fill="#CCD0D7" d="M505.95 248.66l73.539-73.54.707.708-73.54 73.54z"/>
        <circle cx="505.95" cy="249.368" r="3.5" fill="#BDC2EC" transform="rotate(-45 505.95 249.368)"/>
        <path fill="#CCD0D7" d="M302 193h104v1H302z"/>
        <g transform="translate(403 112)">
            <path fill="#CCD0D7" d="M2.792 81.33L76.33 7.791l.707.707-73.54 73.54z"/>
            <circle cx="77.038" cy="7.791" r="5.5" fill="#BDC2EC" transform="rotate(-45 77.038 7.791)"/>
            <circle cx="3.5" cy="81.5" r="3.5" fill="#BDC2EC"/>
        </g>
        <g transform="translate(176 380)">
            <path fill="#CCD0D7" d="M2.792 74.33L76.33.791l.707.707-73.54 73.54z"/>
            <circle cx="3.5" cy="74.5" r="3.5" fill="#BDC2EC"/>
        </g>
        <g transform="translate(458 245)">
            <path fill="#CCD0D7" d="M5.464 4.964l32 55.426-.866.5-32-55.426z"/>
            <circle cx="4.781" cy="4.781" r="3.5" fill="#BDC2EC" transform="rotate(60 4.781 4.781)"/>
            <circle cx="37.281" cy="61.073" r="3.5" fill="#BDC2EC" transform="rotate(60 37.281 61.073)"/>
        </g>
        <path fill="#CCD0D7" d="M343.464 61.964l32 55.426-.866.5-32-55.426z"/>
        <circle cx="342.781" cy="61.781" r="3.5" fill="#BDC2EC" transform="rotate(60 342.781 61.781)"/>
        <circle cx="375.281" cy="118.073" r="3.5" fill="#BDC2EC" transform="rotate(60 375.281 118.073)"/>
        <path fill="#CCD0D7" d="M245.464 5.11l32 55.426-.866.5-32-55.426z"/>
        <circle cx="245.781" cy="4.781" r="3.5" fill="#BDC2EC" transform="rotate(60 245.781 4.781)"/>
        <path fill="#CCD0D7" d="M269.464 137.11l32 55.426-.866.5-32-55.426z"/>
        <circle cx="267.781" cy="135.781" r="3.5" fill="#BDC2EC" transform="rotate(60 267.781 135.781)"/>
        <path fill="#CCD0D7" d="M368.464 193.964l32 55.426-.866.5-32-55.426z"/>
        <circle cx="367.781" cy="193.781" r="3.5" fill="#BDC2EC" transform="rotate(60 367.781 193.781)"/>
        <path fill="#CCD0D7" d="M578 176h64v1h-64z"/>
        <circle cx="577.5" cy="176.5" r="3.5" fill="#BDC2EC"/>
        <circle cx="642.5" cy="176.5" r="3.5" fill="#BDC2EC"/>
        <path fill="#CCD0D7" d="M149 380h104v1H149zM99 136h104v1H99zM202.95 135.489l73.54-73.54.706.708-73.539 73.539z"/>
        <circle cx="276.95" cy="60.95" r="5.5" fill="#BDC2EC" transform="rotate(-45 276.95 60.95)"/>
        <path fill="#CCD0D7" d="M105.95 77.635l73.539-73.54.707.708-73.54 73.539z"/>
        <circle cx="179.95" cy="4.95" r="3.5" fill="#BDC2EC" transform="rotate(-45 179.95 4.95)"/>
        <path fill="#CCD0D7" d="M128.95 209.489l73.54-73.54.706.708-73.539 73.539z"/>
        <circle cx="202.95" cy="136.196" r="3.5" fill="#BDC2EC" transform="rotate(-45 202.95 136.196)"/>
        <path fill="#CCD0D7" d="M221 323h104v1H221z"/>
        <path fill="#CCD0D7" d="M108 323h114v1H108z"/>
        <g transform="translate(216 318)">
            <path fill="#CCD0D7" d="M5.464 5.964l32 55.426-.866.5-32-55.426z"/>
            <circle cx="37.5" cy="62.5" r="3.5" fill="#BDC2EC"/>
            <circle cx="5.5" cy="5.5" r="5.5" fill="#BDC2EC"/>
        </g>
        <g transform="translate(227 266)">
            <path fill="#CCD0D7" d="M1.464.964l32 55.426-.866.5-32-55.426z"/>
            <circle cx="33.281" cy="57.073" r="3.5" fill="#BDC2EC" transform="rotate(60 33.281 57.073)"/>
        </g>
        <path fill="#CCD0D7" d="M325.95 323.489l73.54-73.54.706.708-73.539 73.539z"/>
        <circle cx="325.95" cy="322.95" r="3.5" fill="#BDC2EC" transform="rotate(-45 325.95 322.95)"/>
        <circle cx="398.778" cy="249.778" r="5.5" fill="#BDC2EC" transform="rotate(-45 398.778 249.778)"/>
        <path fill="#CCD0D7" d="M226.95 267.489l73.54-73.54.706.708-73.539 73.539z"/>
        <circle cx="300.45" cy="193.388" r="5.5" fill="#BDC2EC" transform="rotate(-45 300.45 193.388)"/>
        <g transform="translate(117 262)">
            <path fill="#CCD0D7" d="M5 5h104v1H5z"/>
            <circle cx="110.95" cy="4.95" r="3.5" fill="#BDC2EC" transform="rotate(-45 110.95 4.95)"/>
        </g>
    </g>
</svg>
