<svg xmlns="http://www.w3.org/2000/svg" width="773" height="430" viewBox="0 0 773 430">
    <g fill="none" fill-rule="evenodd">
        <path fill="#DFDFDF" d="M516.973 248.168c-75.088 37.715-118.462 86.995-130.123 147.842 14.729 4.214 25.391 8.012 31.988 11.394 6.596 3.382 10.702 10.914 12.319 22.596h-92.545c-2.72-52.111-2.72-88.331 0-108.66 1.842-13.761 5.439-26.461 9.564-38.572-58.687-3.164-105.213-20.989-125.154-35.803-33.211-24.673 0-158.486 0-160.975 0-1.659 37.245-17.056 111.735-46.193l120.789 22.185c33.277-6.04 64.562-9.06 93.854-9.06 43.938 0 62.474-8.362 95.504-2.403 29.32 5.29 35.19 20.848 46.5 29.859 58.83 46.867-89.035 129.659-174.43 167.79zm-405.95-102.501c12.783-57.362 80.93 72.064 51.42 122.584-19.673 33.68-56.825 63.22-111.455 88.62.215 26.705-1.845 44.255-6.178 52.649-4.334 8.394-13.895 15.22-28.683 20.48L.572 319.319c35.427-18.524 58.678-36.322 69.755-53.395 20.043-30.894 36.037-99.348 40.696-120.257z"/>
        <path fill="#F3F3F3" d="M619.445 46.896C620.265 35.771 629.54 27 640.863 27c11.861 0 21.477 9.626 21.477 21.5 0 .364-.01.726-.027 1.086 27.772 7.875 50.976 27.116 58.894 51.783 8.741 27.236 25.672 53.61 50.793 79.123-12.159 25.571-29.09 34.898-50.793 27.98-32.556-10.377-74.023-25.818-101.928-10.409-27.905 15.41-55.128 74.42-38.887 129.62 5.654 19.218 16.068 40.83 31.242 64.833 21.185 5.455 35.02 9.883 41.502 13.284 6.483 3.402 10.472 11.468 11.966 24.2h-84.71c-80.002-72.719-113.644-150.031-100.924-231.937C498.546 75.205 595.033 53.647 604.766 50.443a93.741 93.741 0 0 1 14.679-3.547z"/>
        <path fill="#DFDFDF" d="M758.326 165.037a274.274 274.274 0 0 0 14.142 15.455c-3.007 6.317-6.305 11.642-9.895 15.976a31.86 31.86 0 0 1-6.573-19.43c0-4.244.826-8.295 2.326-12z"/>
        <path fill="#F3F3F3" d="M268.183.93C218.246.93 70.367 29.636 97.29 229.789 115.24 363.223 128.076 429.94 135.8 429.94h106.13c-.243-10.162-3.305-17.09-9.186-20.784-5.881-3.694-20.336-9.066-43.364-16.117 49.791-189.5 170.6-302.875 362.428-340.126C411.206 52.913 376.736.931 268.183.931z"/>
    </g>
</svg>
