<svg xmlns="http://www.w3.org/2000/svg" width="1153" height="166" viewBox="0 0 1153 166">
    <g fill="none" fill-rule="evenodd">
        <g transform="translate(100)">
            <path stroke="#51E1B2" stroke-linecap="round" stroke-width="10" d="M72.125 95.062l-36.063 36.063L0 95.062"/>
            <path stroke="#51E1B2" stroke-linecap="round" stroke-width="10" d="M72.125 65.062l-36.063 36.063L0 65.062"/>
            <path stroke="#51E1B2" stroke-linecap="round" stroke-width="10" d="M64.983 40.991L35.99 69.983 7 40.99M52.941 22.97l-16.97 16.971L19 22.971"/>
            <rect width="11" height="166" x="31" fill="#51E1B2" rx="5.5"/>
        </g>
        <g transform="translate(320)">
            <path stroke="#51E1B2" stroke-linecap="round" stroke-width="10" d="M72.125 95.062l-36.063 36.063L0 95.062"/>
            <path stroke="#51E1B2" stroke-linecap="round" stroke-width="10" d="M72.125 65.062l-36.063 36.063L0 65.062"/>
            <path stroke="#51E1B2" stroke-linecap="round" stroke-width="10" d="M64.983 40.991L35.99 69.983 7 40.99M52.941 22.97l-16.97 16.971L19 22.971"/>
            <rect width="11" height="166" x="31" fill="#51E1B2" rx="5.5"/>
        </g>
        <g transform="translate(540)">
            <path stroke="#51E1B2" stroke-linecap="round" stroke-width="10" d="M72.125 95.062l-36.063 36.063L0 95.062"/>
            <path stroke="#51E1B2" stroke-linecap="round" stroke-width="10" d="M72.125 65.062l-36.063 36.063L0 65.062"/>
            <path stroke="#51E1B2" stroke-linecap="round" stroke-width="10" d="M64.983 40.991L35.99 69.983 7 40.99M52.941 22.97l-16.97 16.971L19 22.971"/>
            <rect width="11" height="166" x="31" fill="#51E1B2" rx="5.5"/>
        </g>
        <g transform="translate(760)">
            <path stroke="#51E1B2" stroke-linecap="round" stroke-width="10" d="M72.125 95.062l-36.063 36.063L0 95.062"/>
            <path stroke="#51E1B2" stroke-linecap="round" stroke-width="10" d="M72.125 65.062l-36.063 36.063L0 65.062"/>
            <path stroke="#51E1B2" stroke-linecap="round" stroke-width="10" d="M64.983 40.991L35.99 69.983 7 40.99M52.941 22.97l-16.97 16.971L19 22.971"/>
            <rect width="11" height="166" x="31" fill="#51E1B2" rx="5.5"/>
        </g>
        <g transform="translate(980)">
            <path stroke="#51E1B2" stroke-linecap="round" stroke-width="10" d="M72.125 95.062l-36.063 36.063L0 95.062"/>
            <path stroke="#51E1B2" stroke-linecap="round" stroke-width="10" d="M72.125 65.062l-36.063 36.063L0 65.062"/>
            <path stroke="#51E1B2" stroke-linecap="round" stroke-width="10" d="M64.983 40.991L35.99 69.983 7 40.99M52.941 22.97l-16.97 16.971L19 22.971"/>
            <rect width="11" height="166" x="31" fill="#51E1B2" rx="5.5"/>
        </g>
        <path stroke="#51E1B2" stroke-linecap="round" stroke-width="6" d="M49.835 89.5L26.5 112.835 3.165 89.5"/>
        <path stroke="#51E1B2" stroke-linecap="round" stroke-width="6" d="M49.669 71.335L26.335 94.669 3 71.335"/>
        <path stroke="#51E1B2" stroke-linecap="round" stroke-width="6" d="M45.184 55.092L26.092 74.184 7 55.092"/>
        <path stroke="#51E1B2" stroke-linecap="round" stroke-width="6" d="M38.52 43.5L26.5 55.52 14.48 43.5"/>
        <path fill="#51E1B2" d="M26.5 29a3.5 3.5 0 0 1 3.5 3.5v97.713a3.5 3.5 0 1 1-7 0V32.5a3.5 3.5 0 0 1 3.5-3.5z"/>
        <path stroke="#51E1B2" stroke-linecap="round" stroke-width="6" d="M269.835 89.5L246.5 112.835 223.165 89.5"/>
        <path stroke="#51E1B2" stroke-linecap="round" stroke-width="6" d="M269.669 71.335l-23.334 23.334L223 71.335"/>
        <path stroke="#51E1B2" stroke-linecap="round" stroke-width="6" d="M265.184 55.092l-19.092 19.092L227 55.092"/>
        <path stroke="#51E1B2" stroke-linecap="round" stroke-width="6" d="M258.52 43.5L246.5 55.52 234.48 43.5"/>
        <path fill="#51E1B2" d="M246.5 29a3.5 3.5 0 0 1 3.5 3.5v97.713a3.5 3.5 0 1 1-7 0V32.5a3.5 3.5 0 0 1 3.5-3.5z"/>
        <g>
            <path stroke="#51E1B2" stroke-linecap="round" stroke-width="6" d="M489.835 89.5L466.5 112.835 443.165 89.5"/>
            <path stroke="#51E1B2" stroke-linecap="round" stroke-width="6" d="M489.669 71.335l-23.334 23.334L443 71.335"/>
            <path stroke="#51E1B2" stroke-linecap="round" stroke-width="6" d="M485.184 55.092l-19.092 19.092L447 55.092"/>
            <path stroke="#51E1B2" stroke-linecap="round" stroke-width="6" d="M478.52 43.5L466.5 55.52 454.48 43.5"/>
            <path fill="#51E1B2" d="M466.5 29a3.5 3.5 0 0 1 3.5 3.5v97.713a3.5 3.5 0 1 1-7 0V32.5a3.5 3.5 0 0 1 3.5-3.5z"/>
        </g>
        <g>
            <path stroke="#51E1B2" stroke-linecap="round" stroke-width="6" d="M709.835 89.5L686.5 112.835 663.165 89.5"/>
            <path stroke="#51E1B2" stroke-linecap="round" stroke-width="6" d="M709.669 71.335l-23.334 23.334L663 71.335"/>
            <path stroke="#51E1B2" stroke-linecap="round" stroke-width="6" d="M705.184 55.092l-19.092 19.092L667 55.092"/>
            <path stroke="#51E1B2" stroke-linecap="round" stroke-width="6" d="M698.52 43.5L686.5 55.52 674.48 43.5"/>
            <path fill="#51E1B2" d="M686.5 29a3.5 3.5 0 0 1 3.5 3.5v97.713a3.5 3.5 0 1 1-7 0V32.5a3.5 3.5 0 0 1 3.5-3.5z"/>
        </g>
        <g>
            <path stroke="#51E1B2" stroke-linecap="round" stroke-width="6" d="M929.835 89.5L906.5 112.835 883.165 89.5"/>
            <path stroke="#51E1B2" stroke-linecap="round" stroke-width="6" d="M929.669 71.335l-23.334 23.334L883 71.335"/>
            <path stroke="#51E1B2" stroke-linecap="round" stroke-width="6" d="M925.184 55.092l-19.092 19.092L887 55.092"/>
            <path stroke="#51E1B2" stroke-linecap="round" stroke-width="6" d="M918.52 43.5L906.5 55.52 894.48 43.5"/>
            <path fill="#51E1B2" d="M906.5 29a3.5 3.5 0 0 1 3.5 3.5v97.713a3.5 3.5 0 1 1-7 0V32.5a3.5 3.5 0 0 1 3.5-3.5z"/>
        </g>
        <g>
            <path stroke="#51E1B2" stroke-linecap="round" stroke-width="6" d="M1149.835 89.5l-23.335 23.335-23.335-23.335"/>
            <path stroke="#51E1B2" stroke-linecap="round" stroke-width="6" d="M1149.669 71.335l-23.334 23.334L1103 71.335"/>
            <path stroke="#51E1B2" stroke-linecap="round" stroke-width="6" d="M1145.184 55.092l-19.092 19.092L1107 55.092"/>
            <path stroke="#51E1B2" stroke-linecap="round" stroke-width="6" d="M1138.52 43.5l-12.02 12.02-12.02-12.02"/>
            <path fill="#51E1B2" d="M1126.5 29a3.5 3.5 0 0 1 3.5 3.5v97.713a3.5 3.5 0 1 1-7 0V32.5a3.5 3.5 0 0 1 3.5-3.5z"/>
        </g>
    </g>
</svg>
