<svg xmlns="http://www.w3.org/2000/svg" width="307" height="64" viewBox="0 0 307 64">
    <g fill="none" fill-rule="evenodd">
        <path fill="#232628" d="M0 62.989V0h10.505v27.518c3.143-4.128 7.61-6.234 12.325-6.234 10.174 0 17.701 8.088 17.701 21.4C40.531 56.249 32.921 64 22.83 64c-4.798 0-9.182-2.19-12.325-6.235v5.224H0zm10.505-13.06c1.737 2.613 5.625 4.55 9.016 4.55 6.121 0 10.174-4.718 10.174-11.795s-4.053-11.88-10.174-11.88c-3.391 0-7.279 2.022-9.016 4.718V49.93zm36.087 13.06h10.505V36.112c1.737-2.612 6.37-4.634 9.843-4.634 1.158 0 2.151.169 2.896.337V21.368c-4.963 0-9.927 2.865-12.739 6.487v-5.56H46.592v40.694zm55.897 0h10.505V22.295h-10.505v27.55c-1.82 2.36-5.046 4.634-9.099 4.634-4.467 0-7.362-1.853-7.362-7.498V22.295H75.523v28.899C75.523 59.114 79.66 64 88.427 64c6.535 0 11.332-3.033 14.062-6.15v5.139zm43.905 0h13.152L143.25 40.746l15.8-18.451h-12.905l-15.137 18.114V6.792h-10.505V62.99h10.505V52.542l4.798-5.224 10.588 15.671zm17.516 0h10.505V6.792H163.91V62.99zm15.212-20.39c0-11.795 8.52-21.315 20.679-21.315 11.911 0 20.017 9.1 20.017 22.411v2.36h-29.695c.662 5.139 4.715 9.435 11.498 9.435 3.722 0 8.106-1.516 10.67-4.044l4.632 6.91c-3.97 3.706-10.257 5.644-16.46 5.644-12.16 0-21.341-8.341-21.341-21.4zM199.8 29.794c-6.535 0-9.347 4.971-9.843 9.015h19.686c-.248-3.875-2.895-9.015-9.843-9.015zm51.68 33.196h10.505v-28.73c0-7.92-4.219-12.975-12.987-12.975-6.534 0-11.415 3.201-13.979 6.319v-5.308h-10.505v40.694h10.505V35.607c1.737-2.444 4.963-4.803 9.1-4.803 4.466 0 7.36 1.938 7.36 7.583V62.99zm14.822-20.39c0-11.795 8.52-21.315 20.68-21.315 11.91 0 20.017 9.1 20.017 22.411v2.36h-29.695c.661 5.139 4.715 9.435 11.497 9.435 3.723 0 8.107-1.516 10.67-4.044l4.633 6.91c-3.97 3.706-10.257 5.644-16.46 5.644-12.16 0-21.342-8.341-21.342-21.4zm20.68-12.806c-6.535 0-9.347 4.971-9.844 9.015h19.687c-.248-3.875-2.895-9.015-9.843-9.015z"/>
        <path fill="#EA1328" d="M85.696 14C82.55 14 80 11.538 80 8.5S82.55 3 85.696 3s5.697 2.462 5.697 5.5-2.55 5.5-5.697 5.5zm17.608 0c-3.146 0-5.697-2.462-5.697-5.5s2.55-5.5 5.697-5.5C106.45 3 109 5.462 109 8.5s-2.55 5.5-5.696 5.5z"/>
    </g>
</svg>
